<svg width="28" height="28" viewBox="0 0 28 28" fill="none" xmlns="http://www.w3.org/2000/svg">
<path fill-rule="evenodd" clip-rule="evenodd" d="M6.01 6.01017C6.27254 5.74771 6.62857 5.60027 6.9998 5.60027C7.37103 5.60027 7.72706 5.74771 7.9896 6.01017L13.9998 12.0204L20.01 6.01017C20.1391 5.87645 20.2936 5.7698 20.4644 5.69643C20.6352 5.62305 20.8189 5.58443 21.0048 5.58282C21.1907 5.5812 21.3751 5.61662 21.5471 5.68702C21.7192 5.75741 21.8755 5.86136 22.007 5.99281C22.1384 6.12426 22.2424 6.28058 22.3128 6.45263C22.3831 6.62469 22.4186 6.80904 22.417 6.99493C22.4153 7.18082 22.3767 7.36453 22.3033 7.53533C22.23 7.70614 22.1233 7.86062 21.9896 7.98977L15.9794 14L21.9896 20.0102C22.2446 20.2742 22.3857 20.6279 22.3825 20.9949C22.3794 21.362 22.2321 21.7131 21.9725 21.9727C21.713 22.2323 21.3618 22.3795 20.9948 22.3827C20.6277 22.3859 20.274 22.2448 20.01 21.9898L13.9998 15.9796L7.9896 21.9898C7.72556 22.2448 7.37191 22.3859 7.00484 22.3827C6.63776 22.3795 6.28662 22.2323 6.02705 21.9727C5.76748 21.7131 5.62024 21.362 5.61705 20.9949C5.61386 20.6279 5.75498 20.2742 6.01 20.0102L12.0202 14L6.01 7.98977C5.74754 7.72723 5.6001 7.3712 5.6001 6.99997C5.6001 6.62874 5.74754 6.27271 6.01 6.01017Z" fill="#4B164C"/>
</svg>
