<svg width="24" height="24" viewBox="0 0 24 24" fill="none" xmlns="http://www.w3.org/2000/svg">
<path d="M21.333 5.33325H2.66634C2.31272 5.33325 1.97358 5.47373 1.72353 5.72378C1.47348 5.97383 1.33301 6.31296 1.33301 6.66659V17.3333C1.33301 17.6869 1.47348 18.026 1.72353 18.2761C1.97358 18.5261 2.31272 18.6666 2.66634 18.6666H21.333C21.6866 18.6666 22.0258 18.5261 22.2758 18.2761C22.5259 18.026 22.6663 17.6869 22.6663 17.3333V6.66659C22.6663 6.31296 22.5259 5.97383 22.2758 5.72378C22.0258 5.47373 21.6866 5.33325 21.333 5.33325ZM21.333 17.3333H2.66634V6.66659H21.333V17.3333Z" fill="#4B164C"/>
<path d="M4.66699 8.66675H6.00033V10.0001H4.66699V8.66675Z" fill="#4B164C"/>
<path d="M7.33301 8.66675H8.66634V10.0001H7.33301V8.66675Z" fill="#4B164C"/>
<path d="M10 8.66675H11.3333V10.0001H10V8.66675Z" fill="#4B164C"/>
<path d="M12.667 8.66675H14.0003V10.0001H12.667V8.66675Z" fill="#4B164C"/>
<path d="M15.333 8.66675H16.6663V10.0001H15.333V8.66675Z" fill="#4B164C"/>
<path d="M18 8.66675H19.3333V10.0001H18V8.66675Z" fill="#4B164C"/>
<path d="M4.66699 11.3333H6.00033V12.6666H4.66699V11.3333Z" fill="#4B164C"/>
<path d="M7.33301 11.3333H8.66634V12.6666H7.33301V11.3333Z" fill="#4B164C"/>
<path d="M10 11.3333H11.3333V12.6666H10V11.3333Z" fill="#4B164C"/>
<path d="M12.667 11.3333H14.0003V12.6666H12.667V11.3333Z" fill="#4B164C"/>
<path d="M15.333 11.3333H16.6663V12.6666H15.333V11.3333Z" fill="#4B164C"/>
<path d="M18 11.3333H19.3333V12.6666H18V11.3333Z" fill="#4B164C"/>
<path d="M18 14.6667H19.2933V16.0001H18V14.6667Z" fill="#4B164C"/>
<path d="M4.66699 14.6667H6.00033V16.0001H4.66699V14.6667Z" fill="#4B164C"/>
<path d="M7.41992 14.6667H16.5866V16.0001H7.41992V14.6667Z" fill="#4B164C"/>
</svg>
