<svg width="32" height="32" viewBox="0 0 32 32" fill="none" xmlns="http://www.w3.org/2000/svg">
<path fill-rule="evenodd" clip-rule="evenodd" d="M5.07549 8.27513C6.27567 7.07532 7.90324 6.4013 9.60029 6.4013C11.2973 6.4013 12.9249 7.07532 14.1251 8.27513L16.0003 10.1487L17.8755 8.27513C18.4659 7.66387 19.1721 7.1763 19.9529 6.84088C20.7337 6.50547 21.5735 6.32892 22.4233 6.32153C23.2731 6.31415 24.1159 6.47608 24.9024 6.79788C25.6889 7.11967 26.4035 7.59489 27.0044 8.19581C27.6053 8.79672 28.0806 9.51129 28.4024 10.2978C28.7242 11.0844 28.8861 11.9271 28.8787 12.7769C28.8713 13.6267 28.6948 14.4665 28.3593 15.2473C28.0239 16.0281 27.5364 16.7344 26.9251 17.3247L16.0003 28.2511L5.07549 17.3247C3.87568 16.1246 3.20166 14.497 3.20166 12.7999C3.20166 11.1029 3.87568 9.47531 5.07549 8.27513Z" fill="white"/>
</svg>
