<svg width="28" height="28" viewBox="0 0 28 28" fill="none" xmlns="http://www.w3.org/2000/svg">
<g clip-path="url(#clip0_1307_326)">
<g clip-path="url(#clip1_1307_326)">
<path d="M20.4874 24.5001C20.3008 24.5008 20.1168 24.4568 19.9507 24.3717L14.0007 21.2567L8.0507 24.3717C7.85749 24.4733 7.63966 24.5187 7.42196 24.5027C7.20426 24.4866 6.99542 24.4098 6.8192 24.281C6.64298 24.1522 6.50643 23.9765 6.42508 23.7739C6.34374 23.5713 6.32085 23.35 6.35903 23.1351L7.5257 16.5667L2.71903 11.9001C2.56907 11.7504 2.46268 11.5628 2.4113 11.3572C2.35991 11.1517 2.36547 10.936 2.42737 10.7334C2.49499 10.5261 2.61937 10.3418 2.78641 10.2016C2.95344 10.0614 3.15644 9.97077 3.37237 9.94008L10.0224 8.97174L12.9507 2.98674C13.0462 2.78949 13.1954 2.62314 13.3811 2.50674C13.5668 2.39035 13.7815 2.32861 14.0007 2.32861C14.2199 2.32861 14.4346 2.39035 14.6203 2.50674C14.806 2.62314 14.9552 2.78949 15.0507 2.98674L18.014 8.96008L24.664 9.92841C24.88 9.9591 25.083 10.0497 25.25 10.1899C25.417 10.3302 25.5414 10.5144 25.609 10.7217C25.6709 10.9244 25.6765 11.14 25.6251 11.3456C25.5737 11.5511 25.4673 11.7388 25.3174 11.8884L20.5107 16.5551L21.6774 23.1234C21.719 23.3421 21.6972 23.5682 21.6145 23.7749C21.5318 23.9817 21.3917 24.1604 21.2107 24.2901C20.9994 24.4381 20.7451 24.512 20.4874 24.5001Z" fill="white"/>
</g>
</g>
<defs>
<clipPath id="clip0_1307_326">
<rect width="28" height="28" fill="white"/>
</clipPath>
<clipPath id="clip1_1307_326">
<rect width="28" height="28" fill="white"/>
</clipPath>
</defs>
</svg>
